<svg width="111" height="30" viewBox="0 0 111 30" fill="none" xmlns="http://www.w3.org/2000/svg">
<g clip-path="url(#clip0)">
<path d="M105.062 14.28L111 30C109.438 29.704 107.876 29.32 106.314 28.848L102.78 20.28L99.2462 28.848C97.6842 29.32 96.1222 29.704 94.5602 30L100.498 14.28L94.5602 0H101.498L103.934 6.84L106.37 0H113.308L105.062 14.28Z" fill="#E50914"/>
<path d="M90.0618 0L82.7618 21.6C82.7618 21.6 82.7618 21.6 82.7618 21.6L75.4618 0H68.5238L78.9858 30H86.5378L97.0018 0H90.0618Z" fill="#E50914"/>
<path d="M64.2462 10.44C64.2462 7.92 62.6842 6.36 60.1622 6.36H51.9162V30H58.8542V20.28H60.1622C62.6842 20.28 64.2462 18.72 64.2462 16.2V10.44ZM57.5462 14.28V12.36H58.8542V14.28H57.5462Z" fill="#E50914"/>
<path d="M45.0618 0H38.1238V30H45.0618V0Z" fill="#E50914"/>
<path d="M32.4378 0H25.4998V18.72L18.1998 0H11.2618V30H18.1998V11.28L25.4998 30H32.4378V0Z" fill="#E50914"/>
<path d="M4.32618 0H11.2642V30H4.32618V0Z" fill="#E50914"/>
</g>
<defs>
<clipPath id="clip0">
<rect width="111" height="30" fill="white"/>
</clipPath>
</defs>
</svg>